<?xml version="1.0" encoding="UTF-8"?>
<svg id="Layer_1" data-name="Layer 1" xmlns="http://www.w3.org/2000/svg" viewBox="0 0 2568 643">
  <defs>
    <style>
      .cls-1 {
        fill-rule: evenodd;
      }

      .cls-1, .cls-2 {
        fill: #fff;
      }
    </style>
  </defs>
  <rect width="2568" height="643"/>
  <path class="cls-2" d="M931.1,341h82.5c11.6,0,21,9.5,21,21.1s-9.4,21.1-21,21.1h-99.5c-1.6,0-3.1.6-4.2,1.6l-30,25.9c-4.6,4-1.8,11.5,4.2,11.5h124.5s.1,0,.1-.1.1-.1.1-.1c1.6.1,3.1.2,4.7.2,33,0,59.8-26.9,59.8-60.1s-24.1-57.4-54.9-59.9c0,0-.1,0-.1-.1s0-.1-.1-.1h-88.8c-11.6,0-21-9.5-21-21.1s9.4-21.1,21-21.1h99.3c1.6,0,3.2-.6,4.4-1.7l27.9-25.9c4.4-4.1,1.5-11.4-4.4-11.4h-127.1c-33,0-59.8,26.9-59.8,60.1s26.8,60.1,59.8,60.1h1.6Z"/>
  <path class="cls-2" d="M1411.3,220.7c-3.6,0-6.5,2.9-6.5,6.6v188.4c0,3.6,2.9,6.6,6.5,6.6h151c1.8,0,3.5-.8,4.8-2.1l18.9-20.3c3.9-4.2,1-11.1-4.8-11.1h-131.8c-3.6,0-6.5-2.9-6.5-6.6v-155c0-3.6-2.9-6.6-6.5-6.6h-25.1v.1Z"/>
  <path class="cls-1" d="M1169.5,220.7h0q0,.1,0,0c-19.3.9-34.8,16.4-35.7,35.7h0v126.7h0v1.6c0,20.1,15.8,36.5,35.7,37.3h137c19.8-.9,35.7-17.3,35.7-37.3v-1.6h0v-126.6h0c-.8-19.3-16.3-34.9-35.6-35.7h-137.1v-.1ZM1195.1,256.5h0q-.1,0,0,0c-12.1.5-21.8,10.3-22.3,22.5h0v79.7h0v1c0,12.6,9.9,23,22.3,23.5h85.9c12.4-.5,22.3-10.9,22.3-23.5v-1h0v-79.7h0c-.5-12.2-10.2-21.9-22.3-22.5h-85.9Z"/>
  <path class="cls-1" d="M1805.5,415.7c0,3.6,2.9,6.6,6.5,6.6h25.6c3.6,0,6.5-2.9,6.5-6.6v-155.9h0v-1.6c0-20.1-15.7-36.5-35.3-37.3h-133.1c-20.4,0-36.9,16.7-36.9,37.4v1.6h0v155.9c0,3.6,2.9,6.6,6.5,6.6h25.6c3.6,0,6.5-2.9,6.5-6.6v-64.9c0-3.6,2.9-6.6,6.5-6.6h115.4c3.6,0,6.5,2.9,6.5,6.6v64.8h-.3ZM1677.2,308.4v-32.4c0-12.6,10.1-22.8,22.5-22.8h83.4c12.4,0,22.5,10.2,22.5,22.8v32.4c0,3.6-2.9,6.6-6.5,6.6h-115.4c-3.6,0-6.5-2.9-6.5-6.6Z"/>
  <path class="cls-1" d="M2346,422.3c-3.6,0-6.5-2.9-6.5-6.6v-64.9c0-3.6-2.9-6.6-6.5-6.6h-116.7c-3.6,0-6.5,2.9-6.5,6.6v64.9c0,3.6-2.9,6.6-6.5,6.6h-25.8c-3.6,0-6.5-2.9-6.5-6.6v-155.9h0v-1.6c0-20.6,16.7-37.4,37.3-37.4h134.5c19.8.9,35.7,17.3,35.7,37.3v1.6h0v155.9c0,3.6-2.9,6.6-6.5,6.6h-26v.1ZM2209.8,276v32.4c0,3.6,2.9,6.6,6.5,6.6h116.7c3.6,0,6.5-2.9,6.5-6.6v-32.4c0-12.6-10.2-22.8-22.7-22.8h-84.3c-12.6,0-22.7,10.2-22.7,22.8Z"/>
  <path class="cls-2" d="M1940.5,220.7c1.9,0,3.7.8,4.9,2.3l114.8,136.9c3.9,4.6,11.4,1.8,11.4-4.3v-128.3c0-3.6,2.9-6.6,6.5-6.6h25.6c3.6,0,6.5,2.9,6.5,6.6v188.4c0,3.6-2.9,6.6-6.5,6.6h-31.8c-.1,0-.2-.1-.2-.2s0-.1-.1-.2l-116.8-135.9c-3.9-4.6-11.4-1.7-11.4,4.3v125.5c0,3.6-2.9,6.6-6.5,6.6h-25.8c-3.6,0-6.5-2.9-6.5-6.6v-188.5c0-3.6,2.9-6.6,6.5-6.6h29.4Z"/>
  <path class="cls-2" d="M274.4,429.2c3.2-3.2,7.5-5,12-5h416.5c7.6,0,11.4,9.2,6,14.5l-82.3,82.3c-3.2,3.2-7.5,5-12,5H198.1c-7.6,0-11.4-9.2-6-14.5l82.3-82.3Z"/>
  <path class="cls-2" d="M274.4,122c3.2-3.2,7.5-5,12-5h416.5c7.6,0,11.4,9.2,6,14.5l-82.3,82.2c-3.2,3.2-7.5,5-12,5H198.1c-7.6,0-11.4-9.2-6-14.5l82.3-82.2Z"/>
  <path class="cls-2" d="M626.6,274.6c-3.2-3.2-7.5-5-12-5H198.1c-7.6,0-11.4,9.2-6,14.5l82.3,82.2c3.2,3.2,7.5,5,12,5h416.5c7.6,0,11.4-9.2,6-14.5l-82.3-82.2Z"/>
</svg>